<svg version="1.1" xmlns="http://www.w3.org/2000/svg" xmlns:xlink="http://www.w3.org/1999/xlink" width="192" height="192" viewBox="0 0 192 192">
  <g fill="none" stroke="none" stroke-width="1" stroke-linecap="butt" stroke-linejoin="miter" stroke-dasharray="" stroke-dashoffset="0">
    <rect x="0" y="0" width="192" height="192" fill="none" fill-rule="nonzero"/>
    <circle cx="96" cy="96" r="96" fill="#ffca28" fill-rule="nonzero"/>
    <g fill="#3c4043" fill-rule="evenodd">
      <path d="M96,49.33333c25.66667,0 46.66667,21 46.66667,46.66667c0,25.66667 -21,46.66667 -46.66667,46.66667c-25.66667,0 -46.66667,-21 -46.66667,-46.66667c0,-25.66667 21,-46.66667 46.66667,-46.66667zM120.73333,124c7.46667,-7 12.6,-16.8 12.6,-28c0,-20.53333 -16.8,-37.33333 -37.33333,-37.33333c-20.53333,0 -37.33333,16.8 -37.33333,37.33333c0,11.2 5.13333,21 12.6,28c6.53333,-5.6 14.93333,-9.33333 24.73333,-9.33333c9.8,0 18.2,3.73333 24.73333,9.33333zM72.66667,82c2.8,0 4.66667,1.86667 4.66667,4.66667c0,2.8 -1.86667,4.66667 -4.66667,4.66667c-2.8,0 -4.66667,-1.86667 -4.66667,-4.66667c0,-2.8 1.86667,-4.66667 4.66667,-4.66667zM91.33333,72.66667c0,2.8 -1.86667,4.66667 -4.66667,4.66667c-2.8,0 -4.66667,-1.86667 -4.66667,-4.66667c0,-2.8 1.86667,-4.66667 4.66667,-4.66667c2.8,0 4.66667,1.86667 4.66667,4.66667zM119.33333,82c2.8,0 4.66667,1.86667 4.66667,4.66667c0,2.8 -1.86667,4.66667 -4.66667,4.66667c-2.8,0 -4.66667,-1.86667 -4.66667,-4.66667c0,-2.8 1.86667,-4.66667 4.66667,-4.66667zM101.39933,70.156c1.22503,-1.9177 3.65458,-2.67222 5.75044,-1.78587c2.09586,0.88635 3.24684,3.15512 2.72423,5.36987c-1.56271,7.98043 -3.1276,15.96043 -4.69467,23.94c-0.69661,3.71859 -3.56912,6.64881 -7.27312,7.41924c-3.704,0.77042 -7.50669,-0.77138 -9.62828,-3.90379c-2.1216,-3.13241 -2.14237,-7.23572 -0.05259,-10.38945z"/>
    </g>
  </g>
</svg>
