<svg version="1.1" xmlns="http://www.w3.org/2000/svg" xmlns:xlink="http://www.w3.org/1999/xlink" width="192" height="192" viewBox="0 0 192 192">
  <g fill="none" stroke="none" stroke-width="1" stroke-linecap="butt" stroke-linejoin="miter" stroke-dasharray="" stroke-dashoffset="0">
    <rect x="0" y="0" width="192" height="192" fill="none" fill-rule="nonzero"/>
    <circle cx="96" cy="96" r="96" fill="#ffca28" fill-rule="nonzero"/>
    <g fill="#3c4043" fill-rule="evenodd">
      <path d="M65.66667,128.66667c-3.86599,0 -7,-3.13401 -7,-7c0,-3.86599 3.13401,-7 7,-7h4.66667c3.86599,0 7,-3.13401 7,-7c0,-3.86599 -3.13401,-7 -7,-7h-9.33333c-3.86599,0 -7,-3.13401 -7,-7c0,-3.86599 3.13401,-7 7,-7h16.33333c2.57733,0 4.66667,-2.08934 4.66667,-4.66667c0,-2.57733 -2.08934,-4.66667 -4.66667,-4.66667c-3.86599,0 -7,-3.13401 -7,-7c0,-3.86599 3.13401,-7 7,-7h69.86c2.926,0 5.14267,2.744 4.63867,5.74467l-9.33333,55.53333c-0.34662,2.30417 -2.30885,4.01964 -4.63867,4.05533zM85.94333,119.33333h48.006l7.82133,-46.66667h-48.104zM128.02267,112.33333h-33.824l5.404,-32.66667h33.89867zM47,128.66667c-3.86599,0 -7,-3.13401 -7,-7c0,-3.86599 3.13401,-7 7,-7c3.86599,0 7,3.13401 7,7c0,3.86599 -3.13401,7 -7,7z"/>
    </g>
  </g>
</svg>
