<svg version="1.1" xmlns="http://www.w3.org/2000/svg" xmlns:xlink="http://www.w3.org/1999/xlink" width="192" height="192" viewBox="0 0 192 192">
  <g fill="none" stroke="none" stroke-width="1" stroke-linecap="butt" stroke-linejoin="miter" stroke-dasharray="" stroke-dashoffset="0">
    <rect x="0" y="0" width="192" height="192" fill="none" fill-rule="nonzero"/>
    <circle cx="96" cy="96" r="96" fill="#ffca28" fill-rule="nonzero"/>
    <g fill="#3c4043" fill-rule="evenodd">
      <path d="M65.66667,142.66667c-6.44332,0 -11.66667,-5.22334 -11.66667,-11.66667c0,-6.44332 5.22334,-11.66667 11.66667,-11.66667c6.44332,0 11.66667,5.22334 11.66667,11.66667c0,6.44332 -5.22334,11.66667 -11.66667,11.66667zM96,86.66667c6.44332,0 11.66667,5.22334 11.66667,11.66667v32.66667c0,6.44332 -5.22334,11.66667 -11.66667,11.66667c-6.44332,0 -11.66667,-5.22334 -11.66667,-11.66667v-32.66667c0,-6.44332 5.22334,-11.66667 11.66667,-11.66667zM126.33333,49.33333c6.44332,0 11.66667,5.22334 11.66667,11.66667v70c0,6.44332 -5.22334,11.66667 -11.66667,11.66667c-6.44332,0 -11.66667,-5.22334 -11.66667,-11.66667v-70c0,-6.44332 5.22334,-11.66667 11.66667,-11.66667z"/>
    </g>
  </g>
</svg>
