<svg version="1.1" xmlns="http://www.w3.org/2000/svg" xmlns:xlink="http://www.w3.org/1999/xlink" width="192" height="192" viewBox="0 0 192 192">
  <g fill="none" fill-rule="nonzero" stroke="none" stroke-width="1" stroke-linecap="butt" stroke-linejoin="miter" stroke-dasharray="" stroke-dashoffset="0">
    <rect x="0" y="0" width="192" height="192" fill="none"/>
    <circle cx="96" cy="96" r="96" fill="#ffca28"/>
    <g fill="#3c4043">
      <path d="M110,78.53733c-7.69153,-5.13767 -17.83892,-4.63788 -24.98835,1.23077c-7.14943,5.86864 -9.61721,15.72406 -6.07701,24.26937c3.5402,8.54531 12.25466,13.76808 21.45972,12.86129c9.20506,-0.90679 16.73291,-7.72959 18.53765,-16.80143l15.69867,15.70333c2.73267,2.7335 2.73267,7.1645 0,9.898l-6.59867,6.59867c-2.7335,2.73267 -7.1645,2.73267 -9.898,0l-8.134,-8.12933v11.49867c0,3.86599 -3.13401,7 -7,7h-9.33333c-3.86599,0 -7,-3.13401 -7,-7v-11.49867l-8.134,8.12933c-2.7335,2.73267 -7.1645,2.73267 -9.898,0l-6.59867,-6.59867c-2.73267,-2.7335 -2.73267,-7.1645 0,-9.898l8.12933,-8.134h-11.49867c-3.86599,0 -7,-3.13401 -7,-7v-9.33333c0,-3.86599 3.13401,-7 7,-7h11.49867l-8.12933,-8.134c-2.73267,-2.7335 -2.73267,-7.1645 0,-9.898l6.59867,-6.59867c2.7335,-2.73267 7.1645,-2.73267 9.898,0l8.134,8.12933v-11.49867c0,-3.86599 3.13401,-7 7,-7h9.33333c3.86599,0 7,3.13401 7,7zM98.33333,105.33333c-5.15466,0 -9.33333,-4.17868 -9.33333,-9.33333c0,-5.15466 4.17868,-9.33333 9.33333,-9.33333c5.15466,0 9.33333,4.17868 9.33333,9.33333c0,5.15466 -4.17868,9.33333 -9.33333,9.33333z"/>
    </g>
  </g>
</svg>
